<?xml version="1.0" standalone="no"?>
<!DOCTYPE svg PUBLIC "-//W3C//DTD SVG 20010904//EN"
 "http://www.w3.org/TR/2001/REC-SVG-20010904/DTD/svg10.dtd">
<svg version="1.0" xmlns="http://www.w3.org/2000/svg"
 width="1280.000000pt" height="1280.000000pt" viewBox="0 0 1280.000000 1280.000000"
 preserveAspectRatio="xMidYMid meet">
<metadata>
Created by potrace 1.15, written by Peter Selinger 2001-2017
</metadata>
<g transform="translate(0.000000,1280.000000) scale(0.100000,-0.100000)"
fill="#000000" stroke="none">
<path d="M7226 10055 c-64 -34 -136 -88 -315 -238 -148 -124 -156 -129 -230
-148 -104 -27 -193 -80 -356 -216 -227 -189 -306 -233 -417 -233 -193 0 -403
-266 -403 -510 0 -67 5 -95 23 -134 l22 -49 -29 -106 c-17 -58 -35 -136 -42
-173 -10 -64 -13 -68 -53 -92 -94 -55 -171 -166 -217 -316 -19 -60 -23 -99
-24 -190 0 -63 4 -134 8 -158 l9 -43 -44 17 c-103 38 -350 167 -427 222 -158
113 -280 238 -374 380 l-35 54 21 46 c18 38 22 66 22 142 0 83 -4 103 -28 154
-62 133 -166 208 -290 210 -81 1 -119 -18 -219 -111 -76 -72 -94 -83 -150 -97
-27 -6 -28 -5 -28 31 1 50 13 103 57 246 l37 118 -60 60 c-32 33 -67 65 -78
71 -33 18 -101 -10 -167 -69 -80 -71 -105 -80 -138 -54 -72 58 -113 74 -190
79 -105 6 -177 -21 -246 -92 -59 -60 -75 -104 -75 -205 0 -91 25 -164 88 -256
52 -76 211 -240 310 -318 34 -27 62 -51 62 -53 0 -2 -15 -32 -33 -66 -29 -58
-32 -70 -32 -158 0 -86 3 -101 30 -154 43 -85 156 -198 219 -219 62 -21 154
-22 229 -2 69 18 114 19 144 2 12 -7 81 -64 152 -126 167 -146 321 -265 442
-344 92 -59 97 -64 113 -115 10 -29 25 -56 34 -59 9 -3 24 -12 32 -18 8 -7 51
-23 95 -35 44 -11 121 -37 170 -57 103 -40 315 -151 322 -168 2 -7 -19 -68
-46 -137 -98 -245 -135 -412 -129 -586 3 -100 6 -115 23 -128 11 -7 32 -25 46
-39 32 -31 223 -121 355 -168 222 -78 552 -146 874 -179 170 -18 749 -17 895
0 179 22 361 61 500 106 139 46 267 105 301 140 11 11 30 29 41 38 15 11 24
35 30 75 13 90 7 370 -12 561 -9 95 -15 175 -14 177 2 1 63 38 134 80 497 297
916 663 1280 1118 83 104 95 112 237 170 48 19 107 52 132 72 43 36 45 41 60
124 8 47 20 150 26 228 11 160 32 238 80 309 33 47 34 50 34 159 0 188 -53
323 -174 444 -106 106 -231 167 -392 192 -91 15 -118 9 -162 -36 -55 -55 -66
-108 -66 -322 0 -101 -4 -183 -8 -183 -5 0 -35 9 -67 20 -115 40 -190 19 -277
-78 -96 -107 -134 -281 -93 -432 8 -30 15 -58 15 -62 0 -16 -183 -219 -301
-333 -184 -179 -353 -299 -510 -362 -96 -39 -110 -37 -138 20 -24 48 -24 50
-12 186 16 200 15 239 -11 291 -28 53 -77 81 -145 83 l-48 2 -12 -100 c-6 -55
-17 -159 -24 -230 l-11 -131 44 -69 c81 -124 111 -217 111 -340 0 -246 -164
-485 -418 -610 -124 -62 -196 -79 -335 -79 -135 -1 -207 16 -326 75 -77 38
-82 39 -115 25 -110 -46 -288 -70 -414 -55 -162 18 -351 110 -446 217 -103
115 -139 294 -94 465 7 25 1 33 -59 88 -46 43 -75 80 -98 127 -30 60 -33 77
-36 172 -5 122 11 199 58 295 27 56 82 125 98 125 4 0 32 23 61 50 29 28 57
50 61 50 4 0 10 44 13 98 6 107 30 188 79 259 53 79 199 156 358 190 129 28
442 24 655 -7 176 -26 365 -33 372 -13 7 18 -33 88 -68 117 -117 99 -362 158
-654 158 -242 0 -380 -33 -513 -124 -69 -47 -129 -70 -164 -63 -28 6 -30 10
-24 38 12 61 42 102 103 143 199 135 560 202 878 163 316 -39 594 -182 597
-308 1 -25 -8 -39 -42 -68 -40 -35 -42 -39 -38 -82 3 -29 25 -85 58 -151 75
-150 102 -225 103 -291 0 -76 -27 -125 -68 -121 -81 9 -286 104 -472 217 -58
36 -111 65 -119 65 -7 0 -28 -9 -46 -20 -44 -27 -62 -25 -113 10 -24 17 -48
30 -53 30 -6 0 -34 -16 -63 -36 -96 -66 -293 -152 -507 -224 -115 -38 -217
-70 -226 -70 -27 0 -30 -29 -6 -55 13 -14 43 -34 67 -46 23 -11 43 -25 43 -29
0 -16 74 -23 135 -13 33 6 128 39 210 73 175 73 211 80 303 54 75 -21 182 -24
334 -10 l98 9 107 -71 c153 -101 230 -124 339 -102 53 11 66 19 120 74 80 81
98 133 98 271 -1 117 -19 196 -71 301 l-36 73 23 53 c35 79 39 189 10 256 -30
69 -126 159 -282 263 -283 188 -333 256 -279 376 35 77 93 81 168 12 84 -78
262 -139 361 -124 40 6 56 16 103 63 58 58 89 126 89 193 0 53 -41 159 -90
232 -114 170 -221 222 -334 162z m159 -267 c20 -9 25 -18 25 -48 0 -75 -71
-122 -146 -98 -73 24 -74 101 -2 137 48 24 85 26 123 9z m1825 -1318 c25 -6
98 -36 162 -67 117 -56 118 -57 133 -104 9 -26 38 -77 65 -113 48 -66 68 -113
53 -126 -4 -4 -28 -12 -53 -19 -43 -13 -116 -48 -152 -73 -14 -10 -28 -8 -75
11 -222 91 -349 228 -361 389 l-4 68 38 16 c68 29 120 34 194 18z m-5110 -79
c45 -23 55 -62 40 -149 -16 -94 -50 -171 -126 -285 -129 -193 -293 -319 -435
-334 -63 -6 -140 21 -180 63 -21 23 -22 26 -10 81 27 120 137 293 288 454 161
171 304 228 423 170z m2715 -2350 c109 -54 108 -53 79 -163 -58 -217 -47 -195
-111 -214 -95 -28 -181 -5 -280 75 l-53 41 0 115 0 114 30 21 c54 38 100 50
187 47 68 -3 92 -9 148 -36z"/>
<path d="M6041 8547 c-99 -35 -105 -176 -9 -230 l36 -20 34 27 c46 39 68 83
68 138 0 50 -15 73 -57 89 -29 11 -29 11 -72 -4z"/>
<path d="M6967 8505 c-32 -33 -38 -67 -21 -126 11 -36 23 -52 50 -68 43 -25
47 -26 95 -3 44 20 62 55 62 120 0 38 -5 50 -31 74 -44 39 -117 40 -155 3z"/>
<path d="M6518 7839 c-74 -26 -139 -84 -168 -151 -19 -45 -22 -65 -18 -147 5
-122 33 -184 116 -264 124 -118 241 -100 355 54 46 61 69 143 71 244 1 77 -3
98 -25 145 -30 63 -70 107 -116 126 -46 20 -148 16 -215 -7z"/>
<path d="M4855 5339 c-28 -28 -93 -86 -146 -130 -125 -101 -181 -166 -230
-264 -41 -82 -63 -185 -40 -185 6 0 30 -17 54 -38 23 -21 120 -87 215 -146
124 -78 176 -116 184 -135 7 -17 7 -69 2 -151 -16 -246 -4 -302 89 -387 61
-56 119 -72 312 -83 88 -5 243 -19 345 -31 238 -29 499 -32 580 -7 71 22 98
47 207 193 145 194 175 218 246 199 52 -14 83 -90 104 -251 l17 -132 45 -30
c66 -42 276 -91 756 -176 226 -40 264 -42 293 -17 46 38 255 311 285 371 24
49 33 82 35 132 4 65 2 72 -42 154 -64 118 -62 128 22 166 37 17 108 47 157
66 50 19 97 44 106 56 12 15 29 21 57 21 22 1 43 4 47 8 4 4 -9 33 -28 65 -19
32 -63 105 -97 163 -90 150 -186 283 -271 374 l-73 79 -71 -7 c-38 -3 -205
-33 -370 -66 -443 -90 -581 -110 -790 -117 -434 -14 -1019 89 -1782 313 -83
24 -155 44 -160 44 -5 0 -31 -23 -58 -51z"/>
<path d="M5296 3626 c-17 -14 -18 -20 -6 -78 6 -34 34 -132 62 -217 71 -219
73 -280 12 -369 -29 -44 -19 -81 38 -140 72 -73 84 -77 248 -77 158 1 264 16
465 67 141 36 210 62 239 89 12 10 30 25 41 33 19 13 20 26 20 168 -1 154 -8
209 -56 403 -11 44 -27 86 -36 93 -13 9 -106 12 -382 12 -201 1 -400 5 -441
10 -166 21 -184 21 -204 6z"/>
<path d="M6827 3488 c-60 -143 -97 -307 -97 -423 0 -77 2 -85 23 -96 12 -6 31
-20 42 -30 21 -19 271 -125 435 -186 145 -53 252 -75 362 -76 86 -1 100 2 135
24 21 13 47 30 58 36 23 12 23 16 1 98 -23 84 -20 117 18 247 18 63 37 133 41
156 l7 41 -69 20 c-98 29 -908 221 -934 221 -5 0 -15 -15 -22 -32z"/>
</g>
</svg>
