<?xml version="1.0" encoding="UTF-8"?>
<svg width="700pt" height="700pt" version="1.1" viewBox="0 0 700 700" xmlns="http://www.w3.org/2000/svg" xmlns:xlink="http://www.w3.org/1999/xlink">
 <defs>
  <symbol id="w" overflow="visible">
   <path d="m23.391-1.3906c-1.1992 0.625-2.4531 1.0938-3.7656 1.4062-1.3047 0.32031-2.668 0.48438-4.0938 0.48438-4.2422 0-7.6016-1.1797-10.078-3.5469-2.4805-2.375-3.7188-5.5938-3.7188-9.6562 0-4.0703 1.2383-7.2891 3.7188-9.6562 2.4766-2.375 5.8359-3.5625 10.078-3.5625 1.4258 0 2.7891 0.16406 4.0938 0.48438 1.3125 0.3125 2.5664 0.78125 3.7656 1.4062v5.2812c-1.2109-0.83203-2.4062-1.4414-3.5938-1.8281-1.1797-0.38281-2.4219-0.57812-3.7344-0.57812-2.3438 0-4.1875 0.75-5.5312 2.25-1.3359 1.5-2 3.5703-2 6.2031 0 2.625 0.66406 4.6875 2 6.1875 1.3438 1.5 3.1875 2.25 5.5312 2.25 1.3125 0 2.5547-0.19141 3.7344-0.57812 1.1875-0.38281 2.3828-0.99219 3.5938-1.8281z"/>
  </symbol>
  <symbol id="d" overflow="visible">
   <path d="m17.125-13.891c-0.54297-0.25-1.0781-0.42969-1.6094-0.54688-0.52344-0.125-1.0469-0.1875-1.5781-0.1875-1.5742 0-2.7891 0.50781-3.6406 1.5156-0.84375 1-1.2656 2.4375-1.2656 4.3125v8.7969h-6.0938v-19.094h6.0938v3.1406c0.78906-1.2578 1.6914-2.1758 2.7031-2.75 1.0195-0.57031 2.2383-0.85938 3.6562-0.85938 0.20703 0 0.42969 0.011719 0.67188 0.03125 0.23828 0.023438 0.58594 0.058594 1.0469 0.10938z"/>
  </symbol>
  <symbol id="a" overflow="visible">
   <path d="m22-9.5938v1.7344h-14.281c0.15625 1.4297 0.67578 2.5 1.5625 3.2188 0.88281 0.71875 2.125 1.0781 3.7188 1.0781 1.2812 0 2.5938-0.1875 3.9375-0.5625 1.3516-0.38281 2.7383-0.96094 4.1562-1.7344v4.7031c-1.4492 0.54297-2.8984 0.95312-4.3438 1.2344-1.4375 0.28125-2.875 0.42188-4.3125 0.42188-3.4609 0-6.1484-0.87891-8.0625-2.6406-1.918-1.7578-2.875-4.2227-2.875-7.3906 0-3.1133 0.9375-5.5625 2.8125-7.3438 1.8828-1.7891 4.4766-2.6875 7.7812-2.6875 3 0 5.3984 0.90625 7.2031 2.7188 1.8008 1.8047 2.7031 4.2188 2.7031 7.25zm-6.2812-2.0312c0-1.1641-0.33984-2.1016-1.0156-2.8125-0.67969-0.70703-1.5586-1.0625-2.6406-1.0625-1.1875 0-2.1523 0.33594-2.8906 1-0.74219 0.66797-1.1992 1.625-1.375 2.875z"/>
  </symbol>
  <symbol id="j" overflow="visible">
   <path d="m11.5-8.5938c-1.2812 0-2.2461 0.21875-2.8906 0.65625-0.63672 0.42969-0.95312 1.0625-0.95312 1.9062 0 0.77344 0.25391 1.375 0.76562 1.8125 0.51953 0.4375 1.2422 0.65625 2.1719 0.65625 1.1445 0 2.1094-0.41016 2.8906-1.2344 0.78906-0.82031 1.1875-1.8516 1.1875-3.0938v-0.70312zm9.3125-2.2969v10.891h-6.1406v-2.8281c-0.82422 1.1562-1.7461 2-2.7656 2.5312-1.0234 0.53125-2.2656 0.79688-3.7344 0.79688-1.9805 0-3.5898-0.57812-4.8281-1.7344-1.2305-1.1562-1.8438-2.6562-1.8438-4.5 0-2.2383 0.76953-3.8789 2.3125-4.9219 1.5391-1.0391 3.957-1.5625 7.25-1.5625h3.6094v-0.48438c0-0.96875-0.38672-1.6758-1.1562-2.125-0.76172-0.44531-1.9492-0.67188-3.5625-0.67188-1.3047 0-2.5156 0.13281-3.6406 0.39062-1.125 0.26172-2.1719 0.65234-3.1406 1.1719v-4.6562c1.3008-0.3125 2.6133-0.55078 3.9375-0.71875 1.3203-0.16406 2.6406-0.25 3.9531-0.25 3.4453 0 5.9297 0.68359 7.4531 2.0469 1.5312 1.3555 2.2969 3.5625 2.2969 6.625z"/>
  </symbol>
  <symbol id="c" overflow="visible">
   <path d="m9.5938-24.516v5.4219h6.2969v4.3594h-6.2969v8.0938c0 0.89844 0.17578 1.5 0.53125 1.8125 0.35156 0.3125 1.0508 0.46875 2.0938 0.46875h3.1406v4.3594h-5.2344c-2.4062 0-4.1172-0.5-5.125-1.5-1-1.0078-1.5-2.7227-1.5-5.1406v-8.0938h-3.0469v-4.3594h3.0469v-5.4219z"/>
  </symbol>
  <symbol id="i" overflow="visible">
   <path d="m15.922-16.297v-10.234h6.1406v26.531h-6.1406v-2.7656c-0.83594 1.125-1.7617 1.9531-2.7812 2.4844-1.0117 0.51953-2.1797 0.78125-3.5 0.78125-2.3555 0-4.293-0.92969-5.8125-2.7969-1.5117-1.875-2.2656-4.2852-2.2656-7.2344 0-2.9453 0.75391-5.3516 2.2656-7.2188 1.5195-1.875 3.457-2.8125 5.8125-2.8125 1.3125 0 2.4766 0.26562 3.5 0.79688 1.0195 0.53125 1.9453 1.3555 2.7812 2.4688zm-4.0156 12.359c1.3008 0 2.2969-0.47266 2.9844-1.4219 0.6875-0.95703 1.0312-2.3477 1.0312-4.1719 0-1.8203-0.34375-3.207-1.0312-4.1562-0.6875-0.95703-1.6836-1.4375-2.9844-1.4375-1.3047 0-2.2969 0.48047-2.9844 1.4375-0.6875 0.94922-1.0312 2.3359-1.0312 4.1562 0 1.8242 0.34375 3.2148 1.0312 4.1719 0.6875 0.94922 1.6797 1.4219 2.9844 1.4219z"/>
  </symbol>
  <symbol id="h" overflow="visible">
   <path d="m13.094-3.9375c1.3125 0 2.3125-0.47266 3-1.4219 0.6875-0.95703 1.0312-2.3477 1.0312-4.1719 0-1.8203-0.34375-3.207-1.0312-4.1562-0.6875-0.95703-1.6875-1.4375-3-1.4375-1.3047 0-2.3086 0.48047-3.0156 1.4375-0.69922 0.96094-1.0469 2.3438-1.0469 4.1562 0 1.8047 0.34766 3.1875 1.0469 4.1562 0.70703 0.96094 1.7109 1.4375 3.0156 1.4375zm-4.0625-12.359c0.84375-1.1133 1.7734-1.9375 2.7969-2.4688 1.0312-0.53125 2.207-0.79688 3.5312-0.79688 2.3516 0 4.2852 0.9375 5.7969 2.8125 1.5078 1.8672 2.2656 4.2734 2.2656 7.2188 0 2.9492-0.75781 5.3594-2.2656 7.2344-1.5117 1.8672-3.4453 2.7969-5.7969 2.7969-1.3242 0-2.5-0.26562-3.5312-0.79688-1.0234-0.53125-1.9531-1.3516-2.7969-2.4688v2.7656h-6.0938v-26.531h6.0938z"/>
  </symbol>
  <symbol id="g" overflow="visible">
   <path d="m0.42188-19.094h6.1094l5.125 12.953 4.375-12.953h6.1094l-8.0312 20.906c-0.8125 2.125-1.7578 3.6094-2.8281 4.4531-1.0742 0.84375-2.4922 1.2656-4.25 1.2656h-3.5312v-4h1.9062c1.0312 0 1.7812-0.16797 2.25-0.5 0.47656-0.32422 0.84766-0.91406 1.1094-1.7656l0.17188-0.53125z"/>
  </symbol>
  <symbol id="f" overflow="visible">
   <path d="m9.7656-20.5v15.531h2.3594c2.6758 0 4.7227-0.66016 6.1406-1.9844 1.4141-1.332 2.125-3.2656 2.125-5.7969s-0.70312-4.4531-2.1094-5.7656c-1.4062-1.3203-3.4609-1.9844-6.1562-1.9844zm-6.5625-4.9531h6.9219c3.8633 0 6.7422 0.27734 8.6406 0.82812 1.8945 0.55469 3.5195 1.4844 4.875 2.7969 1.1875 1.1484 2.0664 2.4688 2.6406 3.9688 0.58203 1.5 0.875 3.2031 0.875 5.1094 0 1.918-0.29297 3.6328-0.875 5.1406-0.57422 1.5-1.4531 2.8281-2.6406 3.9844-1.3672 1.3125-3.0078 2.2461-4.9219 2.7969-1.9062 0.55469-4.7734 0.82812-8.5938 0.82812h-6.9219z"/>
  </symbol>
  <symbol id="b" overflow="visible">
   <path d="m12.016-15.188c-1.3438 0-2.375 0.48438-3.0938 1.4531-0.71094 0.96875-1.0625 2.3711-1.0625 4.2031 0 1.8359 0.35156 3.2344 1.0625 4.2031 0.71875 0.96875 1.75 1.4531 3.0938 1.4531 1.332 0 2.3477-0.48438 3.0469-1.4531 0.70703-0.96875 1.0625-2.3672 1.0625-4.2031 0-1.832-0.35547-3.2344-1.0625-4.2031-0.69922-0.96875-1.7148-1.4531-3.0469-1.4531zm0-4.375c3.2891 0 5.8594 0.89062 7.7031 2.6719 1.8438 1.7734 2.7656 4.2266 2.7656 7.3594 0 3.1367-0.92188 5.5938-2.7656 7.375-1.8438 1.7734-4.4141 2.6562-7.7031 2.6562-3.293 0-5.8711-0.88281-7.7344-2.6562-1.8555-1.7812-2.7812-4.2383-2.7812-7.375 0-3.1328 0.92578-5.5859 2.7812-7.3594 1.8633-1.7812 4.4414-2.6719 7.7344-2.6719z"/>
  </symbol>
  <symbol id="e" overflow="visible">
   <path d="m22.141-11.625v11.625h-6.1406v-8.9062c0-1.6445-0.042969-2.7812-0.125-3.4062-0.074219-0.625-0.19922-1.082-0.375-1.375-0.24219-0.40625-0.5625-0.71875-0.96875-0.9375s-0.875-0.32812-1.4062-0.32812c-1.2734 0-2.2734 0.49609-3 1.4844-0.73047 0.98047-1.0938 2.3398-1.0938 4.0781v9.3906h-6.0938v-19.094h6.0938v2.7969c0.92578-1.1133 1.9062-1.9375 2.9375-2.4688s2.1719-0.79688 3.4219-0.79688c2.207 0 3.8828 0.67969 5.0312 2.0312 1.1445 1.3555 1.7188 3.3242 1.7188 5.9062z"/>
  </symbol>
  <symbol id="v" overflow="visible">
   <path d="m15.922-3.2344c-0.83594 1.1172-1.7617 1.9336-2.7812 2.4531-1.0117 0.52344-2.1797 0.78125-3.5 0.78125-2.3359 0-4.2656-0.91406-5.7969-2.75-1.5234-1.832-2.2812-4.1719-2.2812-7.0156 0-2.8516 0.75781-5.1914 2.2812-7.0156 1.5312-1.832 3.4609-2.75 5.7969-2.75 1.3203 0 2.4883 0.26562 3.5 0.79688 1.0195 0.52344 1.9453 1.3438 2.7812 2.4688v-2.8281h6.1406v17.172c0 3.0625-0.96875 5.3984-2.9062 7.0156-1.9375 1.625-4.75 2.4375-8.4375 2.4375-1.1875 0-2.3398-0.09375-3.4531-0.28125-1.1172-0.17969-2.2344-0.45312-3.3594-0.82812v-4.75c1.0625 0.61328 2.1016 1.0703 3.125 1.375 1.0312 0.30078 2.0625 0.45312 3.0938 0.45312 2 0 3.4609-0.4375 4.3906-1.3125 0.9375-0.875 1.4062-2.2422 1.4062-4.1094zm-4.0156-11.891c-1.2617 0-2.2461 0.46875-2.9531 1.4062-0.71094 0.92969-1.0625 2.2461-1.0625 3.9531 0 1.75 0.33594 3.0781 1.0156 3.9844 0.6875 0.89844 1.6875 1.3438 3 1.3438 1.2695 0 2.2539-0.46094 2.9531-1.3906 0.70703-0.9375 1.0625-2.25 1.0625-3.9375 0-1.707-0.35547-3.0234-1.0625-3.9531-0.69922-0.9375-1.6836-1.4062-2.9531-1.4062z"/>
  </symbol>
  <symbol id="u" overflow="visible">
   <path d="m3.2031-25.453h6.5625v25.453h-6.5625z"/>
  </symbol>
  <symbol id="t" overflow="visible">
   <path d="m2.9375-26.531h6.0938v14.438l7.0312-7h7.0938l-9.3281 8.7656 10.062 10.328h-7.4062l-7.4531-7.9688v7.9688h-6.0938z"/>
  </symbol>
  <symbol id="s" overflow="visible">
   <path d="m20.922-24.656v5.3906c-1.3984-0.625-2.7617-1.0938-4.0938-1.4062-1.3359-0.32031-2.5898-0.48438-3.7656-0.48438-1.5742 0-2.7344 0.21875-3.4844 0.65625-0.75 0.42969-1.125 1.0938-1.125 2 0 0.67969 0.25 1.2109 0.75 1.5938 0.50781 0.38672 1.4297 0.71484 2.7656 0.98438l2.7969 0.5625c2.832 0.5625 4.8438 1.4297 6.0312 2.5938 1.1953 1.1562 1.7969 2.8047 1.7969 4.9375 0 2.8125-0.83594 4.9062-2.5 6.2812-1.668 1.3672-4.2109 2.0469-7.625 2.0469-1.6172 0-3.2344-0.15625-4.8594-0.46875-1.625-0.30078-3.25-0.75391-4.875-1.3594v-5.5469c1.625 0.86719 3.1914 1.5156 4.7031 1.9531 1.5195 0.4375 2.9844 0.65625 4.3906 0.65625 1.4375 0 2.5352-0.23438 3.2969-0.70312 0.75781-0.47656 1.1406-1.1641 1.1406-2.0625 0-0.78906-0.26172-1.3984-0.78125-1.8281-0.51172-0.4375-1.543-0.82812-3.0938-1.1719l-2.5312-0.5625c-2.5547-0.53906-4.418-1.4062-5.5938-2.5938-1.1797-1.1953-1.7656-2.8125-1.7656-4.8438 0-2.5312 0.81641-4.4766 2.4531-5.8438 1.6445-1.3633 4-2.0469 7.0625-2.0469 1.4062 0 2.8438 0.10938 4.3125 0.32812 1.4766 0.21094 3.0078 0.52344 4.5938 0.9375z"/>
  </symbol>
  <symbol id="r" overflow="visible">
   <path d="m15.5-26.531v4h-3.375c-0.86719 0-1.4688 0.15625-1.8125 0.46875-0.33594 0.3125-0.5 0.85938-0.5 1.6406v1.3281h5.2031v4.3594h-5.2031v14.734h-6.1094v-14.734h-3.0312v-4.3594h3.0312v-1.3281c0-2.082 0.57812-3.6172 1.7344-4.6094 1.1562-1 2.9531-1.5 5.3906-1.5z"/>
  </symbol>
  <symbol id="q" overflow="visible">
   <path d="m20.625-15.922c0.78125-1.1875 1.7031-2.0859 2.7656-2.7031 1.0625-0.625 2.2266-0.9375 3.5-0.9375 2.1953 0 3.8672 0.67969 5.0156 2.0312 1.1445 1.3555 1.7188 3.3242 1.7188 5.9062v11.625h-6.1406v-9.9531c0.007813-0.15625 0.015625-0.3125 0.015625-0.46875 0.007812-0.15625 0.015625-0.37891 0.015625-0.67188 0-1.3516-0.19922-2.332-0.59375-2.9375-0.39844-0.61328-1.0391-0.92188-1.9219-0.92188-1.1562 0-2.0547 0.48047-2.6875 1.4375-0.63672 0.94922-0.96484 2.3281-0.98438 4.1406v9.375h-6.1406v-9.9531c0-2.1133-0.18359-3.4727-0.54688-4.0781-0.35547-0.61328-1-0.92188-1.9375-0.92188-1.168 0-2.0742 0.48047-2.7188 1.4375-0.63672 0.96094-0.95312 2.3359-0.95312 4.125v9.3906h-6.125v-19.094h6.125v2.7969c0.75-1.082 1.6094-1.8945 2.5781-2.4375 0.97656-0.55078 2.0508-0.82812 3.2188-0.82812 1.3203 0 2.4883 0.32031 3.5 0.95312 1.0078 0.63672 1.7734 1.5312 2.2969 2.6875z"/>
  </symbol>
  <symbol id="p" overflow="visible">
   <path d="m22.141-11.625v11.625h-6.1406v-8.8594c0-1.6758-0.042969-2.8281-0.125-3.4531-0.074219-0.625-0.19922-1.082-0.375-1.375-0.24219-0.40625-0.5625-0.71875-0.96875-0.9375s-0.875-0.32812-1.4062-0.32812c-1.2734 0-2.2734 0.49609-3 1.4844-0.73047 0.98047-1.0938 2.3398-1.0938 4.0781v9.3906h-6.0938v-26.531h6.0938v10.234c0.92578-1.1133 1.9062-1.9375 2.9375-2.4688s2.1719-0.79688 3.4219-0.79688c2.207 0 3.8828 0.67969 5.0312 2.0312 1.1445 1.3555 1.7188 3.3242 1.7188 5.9062z"/>
  </symbol>
  <symbol id="o" overflow="visible">
   <path d="m3.2031-25.453h7.3281l9.2656 17.453v-17.453h6.2188v25.453h-7.3281l-9.2656-17.469v17.469h-6.2188z"/>
  </symbol>
  <symbol id="n" overflow="visible">
   <path d="m2.7344-7.4375v-11.656h6.125v1.9062c0 1.0312-0.007813 2.3281-0.015625 3.8906-0.011719 1.5625-0.015625 2.6094-0.015625 3.1406 0 1.5312 0.039063 2.6367 0.125 3.3125 0.082031 0.67969 0.21875 1.168 0.40625 1.4688 0.25 0.39844 0.57812 0.70312 0.98438 0.92188s0.86719 0.32812 1.3906 0.32812c1.2695 0 2.2695-0.48828 3-1.4688 0.72656-0.97656 1.0938-2.3359 1.0938-4.0781v-9.4219h6.0938v19.094h-6.0938v-2.7656c-0.92969 1.1172-1.9062 1.9375-2.9375 2.4688-1.0234 0.53125-2.1523 0.79688-3.3906 0.79688-2.2109 0-3.8906-0.67578-5.0469-2.0312-1.1484-1.3516-1.7188-3.3203-1.7188-5.9062z"/>
  </symbol>
  <symbol id="m" overflow="visible">
   <path d="m3.2031-25.453h10.906c3.2383 0 5.7227 0.71875 7.4531 2.1562 1.7266 1.4375 2.5938 3.4844 2.5938 6.1406 0 2.6797-0.86719 4.7344-2.5938 6.1719-1.7305 1.4375-4.2148 2.1562-7.4531 2.1562h-4.3438v8.8281h-6.5625zm6.5625 4.75v7.1094h3.6406c1.2695 0 2.25-0.30469 2.9375-0.92188 0.69531-0.625 1.0469-1.5039 1.0469-2.6406 0-1.1328-0.35156-2.0078-1.0469-2.625-0.6875-0.61328-1.668-0.92188-2.9375-0.92188z"/>
  </symbol>
  <symbol id="l" overflow="visible">
   <path d="m2.9375-19.094h6.0938v18.75c0 2.5625-0.61719 4.5156-1.8438 5.8594-1.2188 1.3438-2.9961 2.0156-5.3281 2.0156h-3.0156v-4h1.0469c1.1641 0 1.9609-0.26172 2.3906-0.78125 0.4375-0.52344 0.65625-1.5547 0.65625-3.0938zm0-7.4375h6.0938v4.9844h-6.0938z"/>
  </symbol>
  <symbol id="k" overflow="visible">
   <path d="m18.359-18.5v4.9844c-0.82422-0.57031-1.6562-0.99219-2.5-1.2656-0.83594-0.26953-1.6992-0.40625-2.5938-0.40625-1.7109 0-3.0391 0.5-3.9844 1.5-0.94922 0.99219-1.4219 2.375-1.4219 4.1562s0.47266 3.1719 1.4219 4.1719c0.94531 0.99219 2.2734 1.4844 3.9844 1.4844 0.95703 0 1.8633-0.14062 2.7188-0.42188 0.85156-0.28125 1.6445-0.70312 2.375-1.2656v5c-0.94922 0.35547-1.918 0.61719-2.9062 0.79688-0.98047 0.17578-1.9648 0.26562-2.9531 0.26562-3.4492 0-6.1484-0.88281-8.0938-2.6562-1.9375-1.7695-2.9062-4.2266-2.9062-7.375 0-3.1445 0.96875-5.6016 2.9062-7.375 1.9453-1.7695 4.6445-2.6562 8.0938-2.6562 1 0 1.9844 0.089844 2.9531 0.26562 0.97656 0.17969 1.9453 0.44531 2.9062 0.79688z"/>
  </symbol>
 </defs>
 <g>
  <path d="m375.46 559.72c0-2.793 0.48828-5.5859 0.97656-8.3125 6.9844-34.363 13.969-68.656 19.977-103.09 3.3516-18.297 5.5859-36.879 7.7539-55.387v0.007812c1.3945-9.3633-0.77344-18.91-6.0781-26.75-5.1719-8.332-13.309-14.395-22.77-16.973-17.23-4.9062-34.973-7.8125-52.871-8.6602-8-0.32813-15.953-1.4297-23.746-3.2852-4.9883-0.44531-9.1016-4.1016-10.125-9.0078-0.55469-5.3516 2.2148-10.5 6.9844-12.992 9.6914-5.5898 20.355-9.2891 31.43-10.895 9.9844-1.7344 20.156-2.1094 30.242-1.1172 5.6641 0.34766 11.348-0.078124 16.898-1.2578 6.9844-1.6055 13.969-4.6797 15.645-13.199 1.6758-8.5195-3.9102-13.41-9.0078-18.648-1.8164-1.8867-3.2812-4.0508-4.8906-6.0781 0-0.55859-23.816-6.9844-36.18-9.918-12.363-2.9336-24.863-5.4492-36.809-9.5703l0.003906 0.003906c-15.684-4.9648-29.715-14.117-40.578-26.469-11.043-12.637-17.168-28.828-17.25-45.609-0.37891-17.484 3.7305-34.773 11.941-50.219 11.344-20.805 26.508-39.285 44.699-54.477 61.461-53.219 133.54-72.285 213.16-66.977 27.551 2.2891 54.234 10.738 78.086 24.723 18.598 10.605 33.824 26.246 43.93 45.117 20.73 34.508 26.484 75.977 15.926 114.82-4.0742 15.617-11.512 30.156-21.793 42.602-10.965 13.062-22.559 25.703-34.922 37.855-16.273 16.344-33.523 31.777-49.797 48.121-9.5 9.5703-18.23 19.836-26.82 30.242-24.266 30.434-39.227 67.223-43.094 105.95-1.2578 10.266-2.2344 20.953-3.4219 30.941 0 2.1641-1.0469 4.332-1.6758 6.9844-4.0508-2.5156-3.4219-5.7969-3.4219-8.6602 0.26562-24.879 4.0508-49.594 11.246-73.406 9.9375-31.504 27.168-60.215 50.285-83.812 19.418-20.535 40.438-39.531 60.414-59.508v0.003906c11.742-11.355 22.906-23.289 33.457-35.762 27.238-33.035 33.453-71.102 24.164-111.75v0.003906c-4-16.961-10.949-33.082-20.535-47.637-11.258-17.586-27.262-31.629-46.164-40.508-27.328-13.629-57.465-20.684-88.004-20.602-42.434-0.74609-84.516 7.8359-123.27 25.141-35.141 15.926-66.191 39.645-90.797 69.355-12.816 14.441-21.484 32.086-25.074 51.055-1.5234 9.4688-1.8281 19.09-0.90625 28.637 2.3438 19.164 13.438 36.16 30.031 46.027 13.578 8.6875 28.633 14.816 44.418 18.086 17.113 4.0508 34.223 8.4492 51.266 12.781 4.3984 1.1172 12.641 13.27 14.457 15.785 3.9648 5.2695 5.2852 12.066 3.5781 18.438-1.7031 6.3672-6.2422 11.598-12.309 14.18-8.1875 4.0781-17.379 5.7031-26.469 4.6797-14.996-1.8086-30.207-0.42969-44.629 4.0508-4.8594 1.5625-9.5391 3.6211-13.969 6.1484-2.1133 1.3164-3.5039 3.5312-3.7734 6.0039 0 1.8164 3.0039 4.332 5.0977 4.8203 6.4648 1.8477 13.121 2.9492 19.836 3.2812 18.68 0.53516 37.227 3.3008 55.246 8.2422 10.734 2.4766 20.164 8.8477 26.473 17.879 5.2422 6.8359 8.2227 15.137 8.5195 23.746 0.41406 15.324-1.0391 30.641-4.332 45.609-8.4492 40.09-17.531 80.039-26.402 119.99-0.69922 3.2109-1.6758 6.3555-2.5156 9.5z"/>
  <path d="m77.719 444.97c-2.9336 1.3281-5.3789 2.5859-7.9609 3.6328h-0.003906c-3.8828 1.8203-8.4805 1.1914-11.73-1.6055-3.1758-2.7734-4.0664-7.3438-2.168-11.105 3.1445-6.9844 6.9844-13.969 10.895-20.465h0.003906c1.2344-2 2.6367-3.8906 4.1875-5.6562-5.8164-2.0586-11.465-4.5547-16.902-7.4766-6.2422-3.7383-10.559-10.004-11.828-17.168-1.2734-7.168 0.62109-14.535 5.1953-20.195 5.1523-7.9492 13.191-13.582 22.418-15.715 8.3828-1.6055 16.902-2.1641 25.422-2.9336h0.003906c2.3828-0.0625 4.7109 0.73047 6.5625 2.2344l-25.004 3.4219c-9.8828 1.1328-18.906 6.1602-25.074 13.969-3.0664 3.3672-4.9961 7.6172-5.5117 12.145-0.51172 4.5273 0.41406 9.1016 2.6484 13.07 2.3555 4.0781 5.793 7.418 9.9414 9.6523 4.1445 2.2344 8.8281 3.2695 13.527 2.9883 2.4453 0 5.7969-2.2344 6.9844 1.2578 0.48828 1.8867-1.4648 4.6797-2.793 6.9844-4.3984 6.3555-9.1484 12.5-13.551 18.859v-0.003906c-0.94141 1.5664-1.6445 3.2617-2.0938 5.0312-0.90625 2.7227-2.0938 5.6562 0.48828 7.9609 2.5508 2.043 6.1797 2.043 8.7305 0 2.0273-1.0469 3.7734-2.7227 5.7266-3.9805 3.9805-2.4453 6.1445-1.3984 6.9844 3.2812 0.24609 1.7852 0.38672 3.5781 0.41797 5.3789 0.84766 10.953 4.9297 21.406 11.734 30.031 3.3945 5.2266 8.8555 8.7578 15.012 9.7188s12.43-0.74609 17.254-4.6875c13.316-10.012 24.641-22.426 33.387-36.598 1.25-1.9922 2.2578-4.125 3.0039-6.3594 2.0273-6.0781 1.4648-7.6836-3.4922-12.082-1.1992-1.2539-2.3203-2.5859-3.3516-3.9805 2.4961-1.1953 5.3984-1.1836 7.8867 0.027343 2.4922 1.207 4.293 3.4883 4.8945 6.1875 0.91016 3.4805 0.91016 7.1367 0 10.617-1.457 4.4375-3.5781 8.6289-6.2891 12.434-8.5898 12.047-18.898 22.777-30.59 31.848-4.8047 4.0586-10.77 6.5039-17.043 6.9844-8.707 0.90625-17.285-2.668-22.766-9.5-6.707-7.6953-11.281-17.016-13.273-27.027-0.69531-3.5625-1.1836-7.125-1.8828-11.176z"/>
  <path d="m124.44 353.48c1.6055-1.957 3.0742-3.9805 4.75-5.7969v-0.003907c17.941-19.176 38.574-35.645 61.254-48.887 10.23-6.5547 20.949-12.324 32.055-17.254 7.9375-3.082 16.145-5.4219 24.516-6.9844 4.5391-1.0469 5.0273-0.48828 10.059 2.1641v0.003906c-1.3008 0.76172-2.6836 1.3711-4.1211 1.8164-13.109 1.7891-25.777 5.9766-37.367 12.359-29.977 16.438-58.078 36.086-83.809 58.598-1.5352 1.3281-3.1445 2.7227-4.75 3.9805v0.003906c-0.41406 0.29688-0.89453 0.48828-1.3984 0.55859z"/>
  <path d="m246.53 308.21c-0.49609 0.54688-1.0898 0.99609-1.7461 1.3281-27.52 8.1719-49.867 24.934-71.449 43.023-8.625 7.5234-17.699 14.52-27.168 20.953 0.75391-1.4219 1.5938-2.7969 2.5156-4.1211 13.332-16.629 29.336-30.934 47.352-42.324 11.105-6.9844 22.977-12.992 34.922-19.066 3.3281-1.4492 6.8633-2.3672 10.477-2.7266 1.8711 0.035156 3.7305 0.34375 5.5156 0.91016z"/>
  <path d="m174.59 386.09c9.7773-18.648 67.539-64.113 83.812-64.812-30.383 19.906-56.434 42.883-83.812 64.812z"/>
  <path d="m358.7 108.12c5.2383-5.2383 30.801-11.941 42.742-10.688-6.5039 3.9727-13.797 6.4727-21.371 7.3359-6.9844 1.8867-13.969 3.2109-20.953 4.8203z"/>
  <path d="m481.41 126.77c-3.5508-1.9453-7-4.0664-10.336-6.3555-5.0977-3.9805-9.9883-8.2422-14.809-12.57-0.90625-0.83984-0.97656-2.5859-1.4648-3.9102 1.5352-0.34766 3.1445-0.76953 4.75-1.0469l-0.003906-0.003906c0.53125 0.023438 1.0273 0.25 1.3984 0.62891 7.7344 4.7422 14.281 11.191 19.137 18.855 0.55469 1.4336 0.99609 2.9023 1.3281 4.4023z"/>
  <use x="41.886719" y="664.765625" xlink:href="#w"/>
  <use x="67.515625" y="664.765625" xlink:href="#d"/>
  <use x="84.738281" y="664.765625" xlink:href="#a"/>
  <use x="108.421875" y="664.765625" xlink:href="#j"/>
  <use x="131.988281" y="664.765625" xlink:href="#c"/>
  <use x="148.683594" y="664.765625" xlink:href="#a"/>
  <use x="172.367187" y="664.765625" xlink:href="#i"/>
  <use x="209.519531" y="664.765625" xlink:href="#h"/>
  <use x="234.519531" y="664.765625" xlink:href="#g"/>
  <use x="269.441406" y="664.765625" xlink:href="#f"/>
  <use x="298.429688" y="664.765625" xlink:href="#b"/>
  <use x="322.417969" y="664.765625" xlink:href="#e"/>
  <use x="347.28125" y="664.765625" xlink:href="#v"/>
  <use x="384.433594" y="664.765625" xlink:href="#u"/>
  <use x="397.429688" y="664.765625" xlink:href="#t"/>
  <use x="432.808594" y="664.765625" xlink:href="#s"/>
  <use x="457.960938" y="664.765625" xlink:href="#a"/>
  <use x="481.644531" y="664.765625" xlink:href="#b"/>
  <use x="41.886719" y="699.6875" xlink:href="#r"/>
  <use x="57.082031" y="699.6875" xlink:href="#d"/>
  <use x="74.304688" y="699.6875" xlink:href="#b"/>
  <use x="98.292969" y="699.6875" xlink:href="#q"/>
  <use x="146.839844" y="699.6875" xlink:href="#c"/>
  <use x="163.535156" y="699.6875" xlink:href="#p"/>
  <use x="188.394531" y="699.6875" xlink:href="#a"/>
  <use x="224.238281" y="699.6875" xlink:href="#o"/>
  <use x="253.464844" y="699.6875" xlink:href="#b"/>
  <use x="277.453125" y="699.6875" xlink:href="#n"/>
  <use x="302.316406" y="699.6875" xlink:href="#e"/>
  <use x="339.335938" y="699.6875" xlink:href="#m"/>
  <use x="364.929687" y="699.6875" xlink:href="#d"/>
  <use x="382.152344" y="699.6875" xlink:href="#b"/>
  <use x="406.140625" y="699.6875" xlink:href="#l"/>
  <use x="418.113281" y="699.6875" xlink:href="#a"/>
  <use x="441.796875" y="699.6875" xlink:href="#k"/>
  <use x="462.496094" y="699.6875" xlink:href="#c"/>
 </g>
</svg>
